<svg width="103" height="48" viewBox="0 0 103 48" fill="none" xmlns="http://www.w3.org/2000/svg">
<g filter="url(#filter0_d_52_100)">
<rect x="2.33337" y="1" width="98.6667" height="44" rx="8" fill="black"/>
<path d="M60.5093 28.1449C60.1766 28.9135 59.7828 29.6211 59.3265 30.2715C58.7046 31.1583 58.1953 31.7721 57.8029 32.113C57.1945 32.6724 56.5427 32.959 55.8447 32.9753C55.3436 32.9753 54.7393 32.8327 54.0358 32.5434C53.3301 32.2555 52.6815 32.113 52.0885 32.113C51.4665 32.113 50.7995 32.2555 50.086 32.5434C49.3714 32.8327 48.7958 32.9834 48.3557 32.9984C47.6863 33.0269 47.0191 32.7322 46.3532 32.113C45.9281 31.7422 45.3965 31.1067 44.7596 30.2063C44.0763 29.2449 43.5145 28.13 43.0743 26.8589C42.603 25.486 42.3667 24.1565 42.3667 22.8694C42.3667 21.3951 42.6853 20.1235 43.3234 19.0578C43.8249 18.2019 44.4921 17.5267 45.3271 17.0311C46.1621 16.5354 47.0644 16.2828 48.036 16.2666C48.5676 16.2666 49.2648 16.4311 50.1312 16.7543C50.9952 17.0786 51.5499 17.243 51.7931 17.243C51.975 17.243 52.5912 17.0507 53.6359 16.6674C54.6238 16.3119 55.4576 16.1647 56.1407 16.2226C57.9916 16.372 59.3822 17.1017 60.307 18.4162C58.6516 19.4192 57.8327 20.824 57.849 22.6262C57.864 24.03 58.3732 25.1981 59.3741 26.1256C59.8276 26.5561 60.3341 26.8888 60.8977 27.1251C60.7755 27.4795 60.6465 27.819 60.5093 28.1449ZM56.2643 11.4404C56.2643 12.5406 55.8623 13.5679 55.0611 14.5188C54.0942 15.6492 52.9247 16.3024 51.6565 16.1993C51.6404 16.0673 51.631 15.9284 51.631 15.7824C51.631 14.7261 52.0908 13.5958 52.9073 12.6715C53.315 12.2036 53.8335 11.8145 54.4622 11.5041C55.0896 11.1983 55.6831 11.0292 56.2412 11.0002C56.2575 11.1473 56.2643 11.2944 56.2643 11.4404V11.4404Z" fill="white"/>
</g>
<defs>
<filter id="filter0_d_52_100" x="0.333374" y="0" width="102.667" height="48" filterUnits="userSpaceOnUse" color-interpolation-filters="sRGB">
<feFlood flood-opacity="0" result="BackgroundImageFix"/>
<feColorMatrix in="SourceAlpha" type="matrix" values="0 0 0 0 0 0 0 0 0 0 0 0 0 0 0 0 0 0 127 0" result="hardAlpha"/>
<feOffset dy="1"/>
<feGaussianBlur stdDeviation="1"/>
<feColorMatrix type="matrix" values="0 0 0 0 0.0627451 0 0 0 0 0.0941176 0 0 0 0 0.156863 0 0 0 0.05 0"/>
<feBlend mode="normal" in2="BackgroundImageFix" result="effect1_dropShadow_52_100"/>
<feBlend mode="normal" in="SourceGraphic" in2="effect1_dropShadow_52_100" result="shape"/>
</filter>
</defs>
</svg>
