<svg width="26" height="26" viewBox="0 0 26 26" fill="none" xmlns="http://www.w3.org/2000/svg">
<g clip-path="url(#clip0_18_489)">
<path d="M5.9584 18.4169C6.85587 18.4169 7.5834 17.6893 7.5834 16.7919C7.5834 15.8944 6.85587 15.1669 5.9584 15.1669C5.06094 15.1669 4.3334 15.8944 4.3334 16.7919C4.3334 17.6893 5.06094 18.4169 5.9584 18.4169Z" fill="#374957"/>
<path d="M20.5833 3.25H5.41665C3.98059 3.25172 2.60384 3.82296 1.58839 4.8384C0.57294 5.85385 0.00170492 7.23061 -1.52588e-05 8.66667L-1.52588e-05 17.3333C0.00170492 18.7694 0.57294 20.1461 1.58839 21.1616C2.60384 22.177 3.98059 22.7483 5.41665 22.75H20.5833C22.0194 22.7483 23.3961 22.177 24.4116 21.1616C25.427 20.1461 25.9983 18.7694 26 17.3333V8.66667C25.9983 7.23061 25.427 5.85385 24.4116 4.8384C23.3961 3.82296 22.0194 3.25172 20.5833 3.25ZM5.41665 5.41667H20.5833C21.4453 5.41667 22.2719 5.75908 22.8814 6.36857C23.4909 6.97806 23.8333 7.80471 23.8333 8.66667H2.16665C2.16665 7.80471 2.50906 6.97806 3.11855 6.36857C3.72805 5.75908 4.5547 5.41667 5.41665 5.41667ZM20.5833 20.5833H5.41665C4.5547 20.5833 3.72805 20.2409 3.11855 19.6314C2.50906 19.0219 2.16665 18.1953 2.16665 17.3333V10.8333H23.8333V17.3333C23.8333 18.1953 23.4909 19.0219 22.8814 19.6314C22.2719 20.2409 21.4453 20.5833 20.5833 20.5833Z" fill="#374957"/>
</g>
<defs>
<clipPath id="clip0_18_489">
<rect width="26" height="26" fill="white"/>
</clipPath>
</defs>
</svg>
