<svg width="104" height="48" viewBox="0 0 104 48" fill="none" xmlns="http://www.w3.org/2000/svg">
<g filter="url(#filter0_d_52_97)">
<rect x="2.66669" y="1" width="98.6667" height="44" rx="8" fill="#1877F2"/>
<g clip-path="url(#clip0_52_97)">
<path d="M64 23C64 16.3726 58.6274 11 52 11C45.3726 11 40 16.3726 40 23C40 28.9895 44.3882 33.954 50.125 34.8542V26.4688H47.0781V23H50.125V20.3563C50.125 17.3488 51.9166 15.6875 54.6576 15.6875C55.9701 15.6875 57.3438 15.9219 57.3438 15.9219V18.875H55.8306C54.34 18.875 53.875 19.8001 53.875 20.75V23H57.2031L56.6711 26.4688H53.875V34.8542C59.6118 33.954 64 28.9895 64 23Z" fill="white"/>
</g>
</g>
<defs>
<filter id="filter0_d_52_97" x="0.666687" y="0" width="102.667" height="48" filterUnits="userSpaceOnUse" color-interpolation-filters="sRGB">
<feFlood flood-opacity="0" result="BackgroundImageFix"/>
<feColorMatrix in="SourceAlpha" type="matrix" values="0 0 0 0 0 0 0 0 0 0 0 0 0 0 0 0 0 0 127 0" result="hardAlpha"/>
<feOffset dy="1"/>
<feGaussianBlur stdDeviation="1"/>
<feColorMatrix type="matrix" values="0 0 0 0 0.0627451 0 0 0 0 0.0941176 0 0 0 0 0.156863 0 0 0 0.05 0"/>
<feBlend mode="normal" in2="BackgroundImageFix" result="effect1_dropShadow_52_97"/>
<feBlend mode="normal" in="SourceGraphic" in2="effect1_dropShadow_52_97" result="shape"/>
</filter>
<clipPath id="clip0_52_97">
<rect width="24" height="24" fill="white" transform="translate(40 11)"/>
</clipPath>
</defs>
</svg>
