<svg width="24" height="24" viewBox="0 0 24 24" fill="none" xmlns="http://www.w3.org/2000/svg">
<g clip-path="url(#clip0_18_512)">
<path d="M2 21V3C2 2.73478 2.10536 2.48043 2.29289 2.29289C2.48043 2.10536 2.73478 2 3 2H8V0H3C2.20435 0 1.44129 0.31607 0.87868 0.87868C0.31607 1.44129 0 2.20435 0 3L0 21C0 21.7956 0.31607 22.5587 0.87868 23.1213C1.44129 23.6839 2.20435 24 3 24H8V22H3C2.73478 22 2.48043 21.8946 2.29289 21.7071C2.10536 21.5196 2 21.2652 2 21Z" fill="#374957"/>
<path d="M23.1227 9.87836L18.5367 5.29236L17.1227 6.70636L21.3867 10.9704L4.99969 10.9994V12.9994L21.4427 12.9704L17.1207 17.2924L18.5347 18.7064L23.1207 14.1204C23.6834 13.558 23.9997 12.7953 24.0001 11.9998C24.0004 11.2043 23.6848 10.4412 23.1227 9.87836Z" fill="#374957"/>
</g>
<defs>
<clipPath id="clip0_18_512">
<rect width="24" height="24" fill="white"/>
</clipPath>
</defs>
</svg>
