<svg width="103" height="48" viewBox="0 0 103 48" fill="none" xmlns="http://www.w3.org/2000/svg">
<g filter="url(#filter0_d_52_91)">
<rect x="2" y="1" width="98.6667" height="44" rx="8" fill="white"/>
<rect x="2.5" y="1.5" width="97.6667" height="43" rx="7.5" stroke="#D0D5DD"/>
<g clip-path="url(#clip0_52_91)">
<path d="M63.0993 23.2764C63.0993 22.4607 63.0332 21.6406 62.8921 20.8381H51.5733V25.4591H58.055C57.7861 26.9494 56.9218 28.2678 55.6564 29.1056V32.1039H59.5233C61.7942 30.0139 63.0993 26.9274 63.0993 23.2764Z" fill="#4285F4"/>
<path d="M51.5733 35.0008C54.8097 35.0008 57.5391 33.9382 59.5277 32.1039L55.6607 29.1055C54.5849 29.8375 53.1959 30.252 51.5777 30.252C48.4471 30.252 45.7927 28.1399 44.8402 25.3003H40.8498V28.3912C42.8869 32.4434 47.0361 35.0008 51.5733 35.0008Z" fill="#34A853"/>
<path d="M44.8358 25.3003C44.3332 23.8099 44.3332 22.1961 44.8358 20.7057V17.6148H40.8498C39.1478 21.0056 39.1478 25.0004 40.8498 28.3912L44.8358 25.3003Z" fill="#FBBC04"/>
<path d="M51.5733 15.7497C53.2841 15.7232 54.9376 16.367 56.1766 17.5487L59.6027 14.1226C57.4333 12.0855 54.554 10.9655 51.5733 11.0008C47.0361 11.0008 42.8869 13.5582 40.8498 17.6148L44.8358 20.7058C45.7838 17.8617 48.4427 15.7497 51.5733 15.7497Z" fill="#EA4335"/>
</g>
</g>
<defs>
<filter id="filter0_d_52_91" x="0" y="0" width="102.667" height="48" filterUnits="userSpaceOnUse" color-interpolation-filters="sRGB">
<feFlood flood-opacity="0" result="BackgroundImageFix"/>
<feColorMatrix in="SourceAlpha" type="matrix" values="0 0 0 0 0 0 0 0 0 0 0 0 0 0 0 0 0 0 127 0" result="hardAlpha"/>
<feOffset dy="1"/>
<feGaussianBlur stdDeviation="1"/>
<feColorMatrix type="matrix" values="0 0 0 0 0.0627451 0 0 0 0 0.0941176 0 0 0 0 0.156863 0 0 0 0.05 0"/>
<feBlend mode="normal" in2="BackgroundImageFix" result="effect1_dropShadow_52_91"/>
<feBlend mode="normal" in="SourceGraphic" in2="effect1_dropShadow_52_91" result="shape"/>
</filter>
<clipPath id="clip0_52_91">
<rect width="24" height="24" fill="white" transform="translate(39.3333 11)"/>
</clipPath>
</defs>
</svg>
