<svg width="26" height="26" viewBox="0 0 26 26" fill="none" xmlns="http://www.w3.org/2000/svg">
<g clip-path="url(#clip0_18_495)">
<path d="M5.41668 21.667H20.5833C22.0194 21.6652 23.3962 21.094 24.4116 20.0785C25.4271 19.0631 25.9983 17.6863 26 16.2503V9.75029C25.9983 8.31422 25.4271 6.93747 24.4116 5.92202C23.3962 4.90657 22.0194 4.33534 20.5833 4.33362H5.41668C3.98062 4.33534 2.60387 4.90657 1.58842 5.92202C0.572969 6.93747 0.00173378 8.31422 1.52588e-05 9.75029V16.2503C0.00173378 17.6863 0.572969 19.0631 1.58842 20.0785C2.60387 21.094 3.98062 21.6652 5.41668 21.667ZM20.5833 6.50028C21.4453 6.50028 22.272 6.84269 22.8814 7.45219C23.4909 8.06168 23.8333 8.88833 23.8333 9.75029V16.2503C23.8333 17.1122 23.4909 17.9389 22.8814 18.5484C22.272 19.1579 21.4453 19.5003 20.5833 19.5003H5.41668C4.55473 19.5003 3.72808 19.1579 3.11858 18.5484C2.50909 17.9389 2.16668 17.1122 2.16668 16.2503V9.75029C2.16668 8.88833 2.50909 8.06168 3.11858 7.45219C3.72808 6.84269 4.55473 6.50028 5.41668 6.50028H20.5833ZM13 17.3336C13.8571 17.3336 14.6949 17.0795 15.4075 16.6033C16.1201 16.1272 16.6755 15.4504 17.0035 14.6586C17.3315 13.8668 17.4173 12.9955 17.2501 12.1549C17.0829 11.3143 16.6702 10.5422 16.0641 9.93616C15.4581 9.33013 14.686 8.91742 13.8454 8.75022C13.0048 8.58301 12.1335 8.66883 11.3417 8.99681C10.5499 9.32479 9.87313 9.8802 9.39698 10.5928C8.92083 11.3054 8.66668 12.1432 8.66668 13.0003C8.66668 14.1496 9.12323 15.2518 9.93588 16.0644C10.7485 16.8771 11.8507 17.3336 13 17.3336ZM13 10.8336C13.4285 10.8336 13.8474 10.9607 14.2037 11.1988C14.5601 11.4368 14.8378 11.7752 15.0018 12.1711C15.1657 12.567 15.2087 13.0027 15.125 13.423C15.0414 13.8433 14.8351 14.2293 14.5321 14.5323C14.2291 14.8354 13.843 15.0417 13.4227 15.1253C13.0024 15.2089 12.5668 15.166 12.1709 15.002C11.775 14.838 11.4366 14.5603 11.1985 14.204C10.9604 13.8477 10.8333 13.4288 10.8333 13.0003C10.8333 12.4256 11.0616 11.8745 11.468 11.4682C11.8743 11.0619 12.4254 10.8336 13 10.8336ZM20.5833 8.66695C20.7976 8.66695 21.0071 8.73049 21.1852 8.84953C21.3634 8.96856 21.5022 9.13776 21.5842 9.33571C21.6662 9.53366 21.6877 9.75149 21.6459 9.96163C21.6041 10.1718 21.5009 10.3648 21.3494 10.5163C21.1979 10.6678 21.0048 10.771 20.7947 10.8128C20.5845 10.8546 20.3667 10.8331 20.1688 10.7512C19.9708 10.6692 19.8016 10.5303 19.6826 10.3522C19.5636 10.174 19.5 9.96455 19.5 9.75029C19.5 9.46297 19.6142 9.18742 19.8173 8.98425C20.0205 8.78109 20.296 8.66695 20.5833 8.66695ZM6.50002 9.75029C6.50002 9.96455 6.43648 10.174 6.31744 10.3522C6.1984 10.5303 6.02921 10.6692 5.83125 10.7512C5.6333 10.8331 5.41548 10.8546 5.20533 10.8128C4.99519 10.771 4.80215 10.6678 4.65065 10.5163C4.49914 10.3648 4.39596 10.1718 4.35416 9.96163C4.31236 9.75149 4.33382 9.53366 4.41581 9.33571C4.49781 9.13776 4.63666 8.96856 4.81481 8.84953C4.99297 8.73049 5.20242 8.66695 5.41668 8.66695C5.704 8.66695 5.97955 8.78109 6.18271 8.98425C6.38588 9.18742 6.50002 9.46297 6.50002 9.75029ZM20.5833 15.167C20.7976 15.167 21.0071 15.2305 21.1852 15.3495C21.3634 15.4686 21.5022 15.6378 21.5842 15.8357C21.6662 16.0337 21.6877 16.2515 21.6459 16.4616C21.6041 16.6718 21.5009 16.8648 21.3494 17.0163C21.1979 17.1678 21.0048 17.271 20.7947 17.3128C20.5845 17.3546 20.3667 17.3331 20.1688 17.2512C19.9708 17.1692 19.8016 17.0303 19.6826 16.8522C19.5636 16.674 19.5 16.4645 19.5 16.2503C19.5 15.963 19.6142 15.6874 19.8173 15.4843C20.0205 15.2811 20.296 15.167 20.5833 15.167ZM6.50002 16.2503C6.50002 16.4645 6.43648 16.674 6.31744 16.8522C6.1984 17.0303 6.02921 17.1692 5.83125 17.2512C5.6333 17.3331 5.41548 17.3546 5.20533 17.3128C4.99519 17.271 4.80215 17.1678 4.65065 17.0163C4.49914 16.8648 4.39596 16.6718 4.35416 16.4616C4.31236 16.2515 4.33382 16.0337 4.41581 15.8357C4.49781 15.6378 4.63666 15.4686 4.81481 15.3495C4.99297 15.2305 5.20242 15.167 5.41668 15.167C5.704 15.167 5.97955 15.2811 6.18271 15.4843C6.38588 15.6874 6.50002 15.963 6.50002 16.2503Z" fill="#374957"/>
</g>
<defs>
<clipPath id="clip0_18_495">
<rect width="26" height="26" fill="white" transform="matrix(-1 0 0 1 26 0)"/>
</clipPath>
</defs>
</svg>
